<svg width="24" height="24" viewBox="0 0 24 24" fill="none" xmlns="http://www.w3.org/2000/svg">
<path fill-rule="evenodd" clip-rule="evenodd" d="M20 12C20 11.8527 19.9398 11.7114 19.8326 11.6072C19.7255 11.503 19.5802 11.4445 19.4286 11.4445H5.95175L9.5481 7.94946C9.65539 7.84515 9.71566 7.70369 9.71566 7.55618C9.71566 7.40867 9.65539 7.2672 9.5481 7.1629C9.4408 7.0586 9.29528 7 9.14355 7C8.99182 7 8.8463 7.0586 8.739 7.1629L4.16787 11.6067C4.11466 11.6583 4.07244 11.7196 4.04363 11.7871C4.01483 11.8546 4 11.9269 4 12C4 12.0731 4.01483 12.1454 4.04363 12.2129C4.07244 12.2804 4.11466 12.3417 4.16787 12.3933L8.739 16.8371C8.8463 16.9414 8.99182 17 9.14355 17C9.29528 17 9.4408 16.9414 9.5481 16.8371C9.65539 16.7328 9.71566 16.5913 9.71566 16.4438C9.71566 16.2963 9.65539 16.1548 9.5481 16.0505L5.95175 12.5555H19.4286C19.5802 12.5555 19.7255 12.497 19.8326 12.3928C19.9398 12.2886 20 12.1473 20 12Z" fill="#DEDEDE"/>
</svg>
