<svg width="24" height="24" viewBox="0 0 24 24" fill="none" xmlns="http://www.w3.org/2000/svg">
<path d="M18.5923 14.1975C18.0574 15.6736 17.1536 16.9926 15.9542 18.0477C14.7548 19.1028 13.2935 19.8643 11.6885 20.2706C10.0835 20.6768 8.38005 20.7165 6.71595 20.3863C5.05185 20.0561 3.47391 19.3653 2.10989 18.3699C4.39391 18.5191 6.6319 17.9804 8.49829 16.832C10.3647 15.6836 11.7621 13.9855 12.4873 11.9846C13.2126 9.98383 13.2277 7.7847 12.5306 5.70713C11.8335 3.62956 10.4605 1.78193 8.61134 0.43301C10.2964 0.542768 11.9505 1.02348 13.4396 1.83624C14.9288 2.64899 16.2113 3.77094 17.1832 5.11125C18.1551 6.45156 18.7891 7.97257 19.0339 9.55112C19.2787 11.1297 19.1274 12.7214 18.5923 14.1975Z" fill="#575757"/>
</svg>
